<svg width="143" height="28" viewBox="0 0 143 28" fill="none" xmlns="http://www.w3.org/2000/svg">
<g id="logo">
<path id="Vector" d="M130.234 13.2188H140.172C140.219 12.9688 140.219 12.7656 140.219 12.4531C140.219 9.9375 138.828 7.875 135.922 7.875C133.031 7.875 130.906 10.1562 130.234 13.2188ZM134.359 22.875C130.125 22.875 127.797 19.9844 127.797 15.9062C127.797 10.4062 131.219 6.0625 135.953 6.0625C139.875 6.0625 142.312 8.60938 142.312 12.7188C142.312 13.4062 142.266 14.2344 142.141 14.8906H129.969C129.922 15.25 129.906 15.5781 129.906 15.8281C129.906 19.0469 131.656 21.0312 134.406 21.0312C136.844 21.0312 138.625 19.7656 139.422 17.7344H141.469C140.578 20.7344 137.812 22.875 134.359 22.875Z" fill="#192A52"/>
<path id="Vector_2" d="M114.453 10.7188C114.453 8.03125 116.844 6.0625 120.312 6.0625C123.719 6.0625 126.094 8.07812 126.203 10.9375H124.219C124.031 9.09375 122.453 7.78125 120.281 7.78125C118 7.78125 116.484 8.95312 116.484 10.5469C116.484 11.8281 117.281 12.5469 119.438 13.25L120.844 13.7031C123.781 14.6562 124.953 15.875 124.953 17.9844C124.953 20.8125 122.391 22.8438 118.828 22.8438C115.094 22.8438 112.531 20.7344 112.375 17.8594H114.453C114.734 19.7969 116.406 21.125 118.922 21.125C121.219 21.125 122.875 19.8125 122.875 18.0938C122.875 16.8281 122.188 16.2344 119.891 15.4844L118.484 15.0156C115.641 14.0938 114.453 12.8125 114.453 10.7188Z" fill="#192A52"/>
<path id="Vector_3" d="M106.391 22.5781L111.188 0.03125H113.281L108.484 22.5781H106.391Z" fill="#192A52"/>
<path id="Vector_4" d="M106.156 6.32812L102.703 22.5781H100.719L101.312 19.9062H101.25C100.312 21.4375 98.2188 22.8438 95.6406 22.8438C92.4844 22.8438 90.5156 20.8125 90.5156 18.2031C90.5156 17.6094 90.6094 16.7656 90.7344 16.125L92.7969 6.32812H94.8906L92.875 15.7969C92.75 16.3906 92.6562 17.1562 92.6562 17.5781C92.6562 19.7969 93.9688 21 96.3906 21C99.2188 21 101.406 18.9219 101.984 16.1875L104.094 6.32812H106.156Z" fill="#192A52"/>
<path id="Vector_5" d="M75.9688 0.03125H83.3906C87.1562 0.03125 89.8906 2.42188 89.8906 6.04688C89.8906 11.0469 86.0156 14.0781 80.7812 14.0781H75.1406L73.3281 22.5781H71.1406L75.9688 0.03125ZM77.7344 1.9375L75.5469 12.1719H80.7031C84.8281 12.1719 87.6719 10 87.6719 6.23438C87.6719 3.60938 85.8125 1.9375 82.7188 1.9375H77.7344Z" fill="#192A52"/>
<path id="Vector_6" d="M61.0312 21.0625C63.6406 21.0625 65.9062 19.3438 66.4531 16.8906L66.9375 14.6875L62.0938 14.9531C59.1875 15.1094 57.5312 16.2969 57.5312 18.2344C57.5312 19.9531 58.9531 21.0625 61.0312 21.0625ZM60.5156 22.8438C57.6562 22.8438 55.4375 21.0312 55.4375 18.4531C55.4375 15.3281 57.8906 13.5312 62.1094 13.2969L67.2812 13.0156L67.5312 11.8594C67.6094 11.5156 67.625 11.1875 67.625 10.875C67.625 9.03125 66.2969 7.89062 63.9688 7.89062C61.5 7.89062 59.9062 9.125 59.5 11H57.3438C57.8594 8.07812 60.4688 6.0625 64.125 6.0625C67.5 6.0625 69.7031 7.90625 69.7031 10.5938C69.7031 11.0781 69.6562 11.5625 69.5781 11.9844L67.3281 22.5781H65.3281L65.8438 20.1875H65.7969C64.6562 21.8125 62.7031 22.8438 60.5156 22.8438Z" fill="#192A52"/>
<path id="Vector_7" d="M55.0312 6.32812L51.5781 22.5781H49.5938L50.1875 19.9062H50.125C49.1875 21.4375 47.0938 22.8438 44.5156 22.8438C41.3594 22.8438 39.3906 20.8125 39.3906 18.2031C39.3906 17.6094 39.4844 16.7656 39.6094 16.125L41.6719 6.32812H43.7656L41.75 15.7969C41.625 16.3906 41.5312 17.1562 41.5312 17.5781C41.5312 19.7969 42.8438 21 45.2656 21C48.0938 21 50.2812 18.9219 50.8594 16.1875L52.9688 6.32812H55.0312Z" fill="#192A52"/>
<path id="Vector_8" d="M28.125 21.0156C31.75 21.0156 34.5 17.5156 34.5 12.9062C34.5 9.92188 32.75 7.90625 29.9375 7.90625C26.5 7.90625 23.75 11.4531 23.75 15.9062C23.75 19.0156 25.4062 21.0156 28.125 21.0156ZM33.625 27.9688H31.5938L33.4531 19.4531H33.3906C32.25 21.4531 30.0156 22.8438 27.6719 22.8438C24.0312 22.8438 21.6719 20.1406 21.6719 15.9844C21.6719 10.4844 25.3281 6.0625 29.9219 6.0625C32.7344 6.0625 34.9219 7.875 35.3281 10.25H35.4062L36.2344 6.32812H38.2344L33.625 27.9688Z" fill="#192A52"/>
<path id="Vector_9" d="M14.2656 2.67188L7.89062 13.8281H16.0938L14.3281 2.67188H14.2656ZM17.4375 22.5781L16.375 15.6562H6.85938L2.85938 22.5781H0.5L13.6875 0.03125H15.8438L19.4688 22.5781H17.4375Z" fill="#192A52"/>
</g>
</svg>
